<?xml version="1.0" encoding="utf-8"?>
<!-- Generator: Adobe Illustrator 18.1.1, SVG Export Plug-In . SVG Version: 6.00 Build 0)  -->
<svg version="1.1" xmlns="http://www.w3.org/2000/svg" xmlns:xlink="http://www.w3.org/1999/xlink" x="0px" y="0px"
	 viewBox="0 0 1000 1000" style="enable-background:new 0 0 1000 1000;" xml:space="preserve">
<g id="Layer_1" style="display:none;">
	<path style="display:inline;fill:#FFFFFF;stroke:#000000;stroke-miterlimit:10;" d="M97,523.9"/>
	<polygon style="display:inline;" points="294,611 151,611 400,250 489,250 	"/>
	<polygon style="display:inline;" points="549.6,426.4 729.9,250.9 850,250.9 699.8,426.4 	"/>
	<polygon style="display:inline;" points="549.6,425.5 658,610.1 830,610.1 699.8,425.5 	"/>
	<polygon style="display:inline;" points="556.7,611 434,611 521.7,250 628.3,250 	"/>
	<rect x="418" y="249.8" style="display:inline;" width="157" height="77.8"/>
	<rect x="308" y="412.4" style="display:inline;" width="217" height="91.2"/>
</g>
<g id="Layer_1_copy">
	<path style="fill:#FFFFFF;stroke:#000000;stroke-miterlimit:10;" d="M97,523.9"/>
	<g>
		<path style="fill:#212121;" d="M741,706.4h170L715.3,486.2L911,293.6H766c-12.9,0-25.2,5-34.3,13.8L628.2,408.3l17.5-84.5
			c3.4-16.2-9.6-31.4-26.9-31.4H416.7c-17.8,0-34.6,8.4-44.7,22.4L89,707.5h145.1c16.5,0,31.7-8.6,39.5-22.5l57-100.5h129.8
			l-24.8,97.8c-3.3,12.8,6.4,25.3,19.6,25.3h139c-15.2-50.1,2.4-146.9,2.4-146.9l101.2,123.5C707.3,698,723.5,706.4,741,706.4z
			 M487.2,479.9h-97.4l40.2-69c6.2-10.9,18.1-17.6,31-17.6l48.1,0.3L487.2,479.9z"/>
	</g>
</g>
<g id="Layer_1_copy_2" style="display:none;">
	<path style="display:inline;fill:#0050FF;" d="M441.5,672.7h114l25.3-122.2L665,653.2c8,11.6,21.5,18.5,36,18.5h141.5L679.7,488.5
		l162.8-160.3H721.8c-10.7,0-21,4.1-28.5,11.5l-86.1,83.9l14.5-70.3c2.8-13.5-8-26.1-22.4-26.1h-70.1L441.5,672.7z"/>
	<path style="display:inline;fill:#FFFFFF;stroke:#000000;stroke-miterlimit:10;" d="M97,523.9"/>
	<path style="display:inline;fill:#0050FF;" d="M842.5,671.7 M621.8,353.4c2.8-13.5-8-26.1-22.4-26.1H431.2
		c-14.9,0-28.8,7-37.2,18.7L158.5,672.7h120.7c13.7,0,26.4-7.2,32.9-18.7l47.4-83.6h108l-26,102.4h114L621.8,353.4z M489.8,483.3
		h-81.1l33.4-57.4c5.2-9,15.1-14.7,25.8-14.7l40.1,0.3L489.8,483.3z"/>
</g>
</svg>
