<?xml version="1.0" encoding="utf-8"?>
<!-- Generator: Adobe Illustrator 14.0.0, SVG Export Plug-In . SVG Version: 6.00 Build 43363)  -->
<!DOCTYPE svg PUBLIC "-//W3C//DTD SVG 1.1//EN" "http://www.w3.org/Graphics/SVG/1.1/DTD/svg11.dtd">
<svg version="1.1" id="Layer_1" xmlns="http://www.w3.org/2000/svg" xmlns:xlink="http://www.w3.org/1999/xlink" x="0px" y="0px"
	 width="508px" height="261px" viewBox="146.5 168.5 508 261" enable-background="new 146.5 168.5 508 261" xml:space="preserve">
<g id="Layer_1_1_" display="none">
	<path display="inline" fill="#FFFFFF" stroke="#000000" stroke-miterlimit="10" d="M158.2,314.34"/>
	<polygon display="inline" points="276.4,366.6 190.6,366.6 340,150 393.4,150 	"/>
	<polygon display="inline" points="429.76,255.84 537.94,150.54 610,150.54 519.88,255.84 	"/>
	<polygon display="inline" points="429.76,255.3 494.8,366.06 598,366.06 519.88,255.3 	"/>
	<polygon display="inline" points="434.02,366.6 360.4,366.6 413.02,150 476.98,150 	"/>
	<rect x="350.8" y="149.88" display="inline" width="94.2" height="46.68"/>
	<rect x="284.8" y="247.44" display="inline" width="130.2" height="54.72"/>
</g>
<g id="Layer_1_copy">
	<g>
		<path fill="#FFFFFF" d="M544.6,423.84h102L529.18,291.72L646.6,176.16h-87c-7.738,0-15.119,3-20.58,8.28l-62.1,60.54l10.5-50.7
			c2.04-9.72-5.76-18.84-16.14-18.84H350.02c-10.68,0-20.76,5.04-26.82,13.44L153.4,424.5h87.06c9.9,0,19.02-5.16,23.7-13.5
			l34.2-60.3h77.88l-14.88,58.68c-1.98,7.68,3.84,15.18,11.76,15.18h83.399c-9.119-30.06,1.439-88.14,1.439-88.14l60.72,74.1
			C524.38,418.8,534.1,423.84,544.6,423.84z M392.32,287.94h-58.44l24.12-41.4c3.72-6.54,10.86-10.56,18.6-10.56l28.86,0.18
			L392.32,287.94z"/>
	</g>
</g>
<g id="Layer_1_copy_2" display="none">
	<path display="inline" fill="#0050FF" d="M364.9,403.62h68.4l15.182-73.32L499,391.92c4.8,6.96,12.9,11.1,21.6,11.1h84.9
		L507.82,293.1l97.68-96.18h-72.42c-6.42,0-12.6,2.46-17.1,6.9l-51.66,50.34l8.699-42.18c1.681-8.1-4.801-15.66-13.439-15.66H417.52
		L364.9,403.62z"/>
	<path display="inline" fill="#FFFFFF" stroke="#000000" stroke-miterlimit="10" d="M158.2,314.34"/>
	<path display="inline" fill="#0050FF" d="M473.08,212.04c1.68-8.1-4.8-15.66-13.44-15.66H358.72c-8.94,0-17.28,4.2-22.32,11.22
		L195.1,403.62h72.42c8.22,0,15.84-4.32,19.74-11.22l28.44-50.16h64.8l-15.6,61.438h68.4L473.08,212.04z M393.88,289.98h-48.66
		l20.04-34.44c3.12-5.4,9.06-8.82,15.48-8.82l24.06,0.18L393.88,289.98z"/>
</g>
</svg>
