<?xml version="1.0" encoding="utf-8"?>
<!-- Generator: Adobe Illustrator 18.1.1, SVG Export Plug-In . SVG Version: 6.00 Build 0)  -->
<svg version="1.1" xmlns="http://www.w3.org/2000/svg" xmlns:xlink="http://www.w3.org/1999/xlink" x="0px" y="0px"
	 viewBox="0 0 1000 1000" style="enable-background:new 0 0 1000 1000;" xml:space="preserve">
<g id="Layer_1" style="display:none;">
	<path style="display:inline;fill:#FFFFFF;stroke:#000000;stroke-miterlimit:10;" d="M97,523.9"/>
	<polygon style="display:inline;" points="294,611 151,611 400,250 489,250 	"/>
	<polygon style="display:inline;" points="549.6,426.4 729.9,250.9 850,250.9 699.8,426.4 	"/>
	<polygon style="display:inline;" points="549.6,425.5 658,610.1 830,610.1 699.8,425.5 	"/>
	<polygon style="display:inline;" points="556.7,611 434,611 521.7,250 628.3,250 	"/>
	<rect x="418" y="249.8" style="display:inline;" width="157" height="77.8"/>
	<rect x="308" y="412.4" style="display:inline;" width="217" height="91.2"/>
</g>
<g id="Layer_1_copy">
	<path style="fill:#FFFFFF;stroke:#000000;stroke-miterlimit:10;" d="M97,523.9"/>
	<g>
		<path style="fill:#212121;" d="M618.8,312.5c3.5,0,5.5,1.9,6.1,2.8c1.1,1.4,1.5,2.9,1.2,4.6l-17.5,84.5l-13.2,64l46.8-45.6
			l103.5-100.9c5.3-5.1,12.6-8.1,20.3-8.1h96.2L701.3,472l-13.5,13.3l12.6,14.2l166.1,186.9H741c-10.9,0-20.9-5.1-26.8-13.6
			l-0.5-0.7l-0.5-0.6L612,548l-27.4-33.4l-7.7,42.5c-0.6,3.5-13.6,75.8-7,130.5H455.2c-0.1,0-0.1,0-0.1,0c-0.1,0-0.2-0.2-0.2-0.2
			c0,0,0,0,0-0.1l24.8-97.8l6.3-24.9h-25.7H330.6h-11.7l-5.7,10.1l-57,100.5c-4.3,7.6-12.8,12.4-22.1,12.4h-106l260.2-360.9
			c6.4-8.9,17-14.1,28.5-14.1H618.8 M412.6,400.9l-40.1,68.9l-17.5,30.1h34.8h97.4h15.6l3.8-15.1l21.9-86.3l6.3-24.8l-25.5-0.2
			l-48.1-0.3l-0.1,0h-0.1C440.9,373.3,422.4,383.9,412.6,400.9 M618.8,292.5H416.7c-17.8,0-34.6,8.4-44.7,22.4L89,707.5h145.1
			c16.5,0,31.7-8.6,39.5-22.5l57-100.5h129.8l-24.8,97.8c-3.3,12.8,6.4,25.3,19.6,25.3h139c-15.2-50.1,2.4-146.9,2.4-146.9
			l101.2,123.5c9.6,13.9,25.9,22.3,43.3,22.3h170L715.3,486.2L911,293.6H766c-12.9,0-25.2,5-34.3,13.8L628.2,408.3l17.5-84.5
			C649.1,307.6,636.1,292.5,618.8,292.5L618.8,292.5z M389.7,479.9l40.2-69c6.2-10.9,18.1-17.6,31-17.6l48.1,0.3l-21.9,86.3H389.7
			L389.7,479.9z"/>
	</g>
</g>
<g id="Layer_1_copy_2" style="display:none;">
	<path style="display:inline;fill:#0050FF;" d="M441.5,672.7h114l25.3-122.2L665,653.2c8,11.6,21.5,18.5,36,18.5h141.5L679.7,488.5
		l162.8-160.3H721.8c-10.7,0-21,4.1-28.5,11.5l-86.1,83.9l14.5-70.3c2.8-13.5-8-26.1-22.4-26.1h-70.1L441.5,672.7z"/>
	<path style="display:inline;fill:#FFFFFF;stroke:#000000;stroke-miterlimit:10;" d="M97,523.9"/>
	<path style="display:inline;fill:#0050FF;" d="M842.5,671.7 M621.8,353.4c2.8-13.5-8-26.1-22.4-26.1H431.2
		c-14.9,0-28.8,7-37.2,18.7L158.5,672.7h120.7c13.7,0,26.4-7.2,32.9-18.7l47.4-83.6h108l-26,102.4h114L621.8,353.4z M489.8,483.3
		h-81.1l33.4-57.4c5.2-9,15.1-14.7,25.8-14.7l40.1,0.3L489.8,483.3z"/>
</g>
</svg>
